#  ==========================================================================
#  
#  Wavefront OBJ format exported by Red-i Productions' "Riptide Pro"
#     (a commercial plugin for Cinema 4D PC & Mac, R9.6 or later)
#  
#  Red-i Productions
#  http://skinprops.com
#  
#  ==========================================================================
mtllib Ebene.mtl
v 0.00000000 540.00000000 -960.00000000
v 0.00000000 -540.00000000 -960.00000000
v 0.00000000 540.00000000 960.00000000
v 0.00000000 -540.00000000 960.00000000
# 4 vertices

vt 0.00000003 0.00000000
vt 1.00000000 0.00000000
vt 1.00000000 1.00000000
vt 0.00000003 1.00000000
# 4 texture coordinates

vn 1.00000000 0.00000000 0.00000000
# 1 vertex normals

usemtl Mat
f 1/1/1 3/2/1 4/3/1 2/4/1
# 1 facets

